# xmcd
#
# Track frame offsets: 
#        150
#        12345
#        24925
#        40667
#        53107
#        60664
#        84297
#        110402
#        122632
#        145930
#        160422
#        170147
#        179282
#        191925
#        206742
#        223747
#        237792
#        247072
#
# Disc length: 3817 seconds
#
# Revision: 1
# Processed by: cddbd v1.5.2PL0 Copyright (c) Steve Scherf et al.
# Submitted via: ExactAudioCopy v0.99pb5
#
DISCID=010ee712
DTITLE=Various Artist - Jazz and ×éôæÜæ Íï 2 (Jazz and Tzaz 60)
DYEAR=1998
DGENRE=Ethnic
TTITLE0=Nick Rassias - You Don't Love Me
TTITLE1=Gus Vali And His Dixieland Band - 12th Street Rag
TTITLE2=Buddy Sarkissian and The Mecca Four - Caravan
TTITLE3=Nick Demetrius And The Athenian Forum - Hello Dolly
TTITLE4=George Mgrdichian - Yesterday
TTITLE5=Gus Vali And The Caravan - Whyek
TTITLE6=Phil Woods and Iordanis Tsomidis - Nica
TTITLE7=Markos Melkon With R. H. Mozian Orchestra - Asia Minor
TTITLE8=Oudi Hrant, Tassos Halkias, Emin Gunduz - Oriental Improvisati
TTITLE8=ons
TTITLE9=Nick Demetrius And The Athenian Forum - The Shadow Of Your Smi
TTITLE9=le
TTITLE10=Chris Vardakis and His Orchestra - Greek Fire
TTITLE11=Michael Hart Ochestra - Sailor Dance
TTITLE12=Artie Barsamian and His Ensemble - Shev Acher
TTITLE13=Enseble Sharqi - Elliniko
TTITLE14=Hakki Obadia and Eddie 'Sheik' Hochak - Ripples Of The Nile
TTITLE15=Hakki Obadia and Eddie 'Sheik' Hochak - Village Feast
TTITLE16=Hakki Obadia and Eddie 'Sheik' Hochak - Red Sea Blues
TTITLE17=Nick Gounaris - Allah
EXTD=YEAR: 1998
EXTT0=
EXTT1=
EXTT2=
EXTT3=
EXTT4=
EXTT5=
EXTT6=
EXTT7=
EXTT8=
EXTT9=
EXTT10=
EXTT11=
EXTT12=
EXTT13=
EXTT14=
EXTT15=
EXTT16=
EXTT17=
PLAYORDER=
